<?xml version="1.0" encoding="iso-8859-1"?>
<!-- Generator: Adobe Illustrator 16.0.0, SVG Export Plug-In . SVG Version: 6.00 Build 0)  -->
<!DOCTYPE svg PUBLIC "-//W3C//DTD SVG 1.1//EN" "http://www.w3.org/Graphics/SVG/1.1/DTD/svg11.dtd">
<svg version="1.1" id="Capa_1" xmlns="http://www.w3.org/2000/svg" xmlns:xlink="http://www.w3.org/1999/xlink" x="0px" y="0px"
	 width="551.593px" height="551.592px" viewBox="0 0 551.593 551.592" style="enable-background:new 0 0 551.593 551.592;"
	 xml:space="preserve">
<g>
	<path d="M508.226,76.029H29.489v324.04h478.743V76.029H508.226z M477.011,368.842H60.706v-261.59h416.305V368.842z M0,417.749
		v43.361c77.593,25.635,532.974,11.686,551.593,0v-43.361H0z M337.8,438.992H225.927v-13.01H337.8V438.992z M450.979,453.301
		c-5.745,0-10.403-4.657-10.403-10.402c0-5.752,4.658-10.415,10.403-10.415c5.751,0,10.415,4.663,10.415,10.415
		C461.395,448.644,456.736,453.301,450.979,453.301z M496.084,453.301c-5.751,0-10.408-4.657-10.408-10.402
		c0-5.752,4.657-10.415,10.408-10.415c5.746,0,10.409,4.663,10.409,10.415C506.493,448.644,501.836,453.301,496.084,453.301z"/>
</g>
<g>
</g>
<g>
</g>
<g>
</g>
<g>
</g>
<g>
</g>
<g>
</g>
<g>
</g>
<g>
</g>
<g>
</g>
<g>
</g>
<g>
</g>
<g>
</g>
<g>
</g>
<g>
</g>
<g>
</g>
</svg>
